<svg version="1.1" xmlns="http://www.w3.org/2000/svg" xmlns:xlink="http://www.w3.org/1999/xlink" width="80.9537" height="80.9537" viewBox="0,0,80.9537,80.9537"><defs><linearGradient x1="240" y1="139.52314" x2="240" y2="220.47685" gradientUnits="userSpaceOnUse" id="color-1"><stop offset="0" stop-color="#38bdf8"/><stop offset="1" stop-color="#e0f2fe"/></linearGradient></defs><g transform="translate(-199.52315,-139.52315)"><g stroke="none" stroke-miterlimit="10"><path d="M215.70982,220.47685c-8.93965,0 -16.18667,-7.24702 -16.18667,-16.18667v-48.58036c0,-8.93965 7.24702,-16.18667 16.18667,-16.18667h48.58036c8.93965,0 16.18667,7.24702 16.18667,16.18667v48.58036c0,8.93965 -7.24702,16.18667 -16.18667,16.18667z" fill="url(#color-1)" stroke-width="0"/><g stroke-width="1"><path d="M221.63316,194.37924c-0.99155,0 -1.79537,-0.80382 -1.79537,-1.79537v-25.12251c0,-0.99155 0.80382,-1.79537 1.79537,-1.79537h36.77347c0.99155,0 1.79537,0.80382 1.79537,1.79537v25.12251c0,0.99155 -0.80382,1.79537 -1.79537,1.79537z" fill="#d2423f"/><path d="M220.5778,194.02605c-1.03854,-0.75683 -0.74001,0.57603 -0.74001,-26.56889c0.00111,-0.47763 0.19248,-0.93512 0.53179,-1.27127c0.33931,-0.33615 0.79857,-0.52324 1.27618,-0.51989c39.68726,0 37.45041,-0.31955 38.22406,0.74001c-0.70217,-0.50455 1.87525,-0.34898 -37.84144,-0.34898c-0.99155,0 -1.79537,0.80382 -1.79537,1.79537c0,27.26265 -0.15137,25.49672 0.34478,26.17366z" fill="#dd6966"/><path d="M260.20199,167.45716v25.12671c0,0.99155 -0.80382,1.79537 -1.79537,1.79537h-36.77347c-0.99155,0 -1.79537,-0.80382 -1.79537,-1.79537v-0.42046c0.19871,0.79747 0.91464,1.35739 1.7365,1.35809h35.57095c0.99155,0 1.79537,-0.80382 1.79537,-1.79537v-24.26897c-0.00232,-0.98991 -0.80545,-1.79116 -1.79537,-1.79116h1.26138c0.98991,0 1.79304,0.80125 1.79537,1.79116z" fill="#ba3b38"/><path d="M239.35977,194.37924v-28.71324h1.34548v28.71324z" fill="#333333"/><path d="M239.35977,194.37503v-0.85353h1.34548v0.85353z" fill="#333333"/><path d="M221.63316,168.35274c0,-0.49462 0.40097,-0.89558 0.89558,-0.89558h34.98231c0.49462,0 0.89558,0.40097 0.89558,0.89558v23.33135c0,0.49462 -0.40097,0.89558 -0.89558,0.89558h-34.98231c-0.49462,0 -0.89558,-0.40097 -0.89558,-0.89558z" fill="#efd3b6"/><path d="M222.07884,192.44933c-0.6391,-0.37841 -0.44569,1.05115 -0.44569,-24.10079c0,-0.49462 0.40097,-0.89558 0.89558,-0.89558c37.70269,0 35.35652,-0.20182 35.73914,0.44569c-0.33216,-0.19761 1.98878,-0.12614 -35.4322,-0.12614c-0.49462,0 -0.89558,0.40097 -0.89558,0.89558c0,24.87024 -0.06307,23.45328 0.13875,23.78124z" fill="#f7e9da"/><path d="M258.1458,167.72096c0.16807,0.16886 0.26194,0.39774 0.26082,0.63599v23.33135c0,0.49462 -0.40097,0.89558 -0.89558,0.89558h-17.49115v-25.12671h17.49115c0.23826,0 0.46669,0.09493 0.63476,0.26379z" fill="#e8bc91"/><path d="M240.0325,167.77671v-0.31955c19.15617,0 17.86536,-0.20182 18.24798,0.44569c-0.33637,-0.19761 0.85353,-0.12614 -18.24798,-0.12614z" fill="#efd3b6"/><path d="M236.4712,178.67925h-11.77289c-0.46443,0 -0.84092,-0.37649 -0.84092,-0.84092c0,-0.46443 0.37649,-0.84092 0.84092,-0.84092h11.77289c0.46443,0 0.84092,0.37649 0.84092,0.84092c0,0.46443 -0.37649,0.84092 -0.84092,0.84092z" fill="#333333"/><path d="M236.4712,187.40381h-11.77289c-0.46443,0 -0.84092,-0.37649 -0.84092,-0.84092c0,-0.46443 0.37649,-0.84092 0.84092,-0.84092h11.77289c0.46443,0 0.84092,0.37649 0.84092,0.84092c0,0.46443 -0.37649,0.84092 -0.84092,0.84092z" fill="#333333"/><path d="M236.4712,183.04363h-11.77289c-0.46443,0 -0.84092,-0.37649 -0.84092,-0.84092c0,-0.46443 0.37649,-0.84092 0.84092,-0.84092h11.77289c0.46443,0 0.84092,0.37649 0.84092,0.84092c0,0.46443 -0.37649,0.84092 -0.84092,0.84092z" fill="#333333"/><path d="M236.4712,174.31908h-11.77289c-0.46443,0 -0.84092,-0.37649 -0.84092,-0.84092c0,-0.46443 0.37649,-0.84092 0.84092,-0.84092h11.77289c0.46443,0 0.84092,0.37649 0.84092,0.84092c0,0.46443 -0.37649,0.84092 -0.84092,0.84092z" fill="#333333"/><path d="M255.0976,178.67925h-11.77289c-0.46443,0 -0.84092,-0.37649 -0.84092,-0.84092c0,-0.46443 0.37649,-0.84092 0.84092,-0.84092h11.77289c0.46443,0 0.84092,0.37649 0.84092,0.84092c0,0.46443 -0.37649,0.84092 -0.84092,0.84092z" fill="#333333"/><path d="M255.0976,187.40381h-11.77289c-0.46443,0 -0.84092,-0.37649 -0.84092,-0.84092c0,-0.46443 0.37649,-0.84092 0.84092,-0.84092h11.77289c0.46443,0 0.84092,0.37649 0.84092,0.84092c0,0.46443 -0.37649,0.84092 -0.84092,0.84092z" fill="#333333"/><path d="M255.0976,183.04363h-11.77289c-0.46443,0 -0.84092,-0.37649 -0.84092,-0.84092c0,-0.46443 0.37649,-0.84092 0.84092,-0.84092h11.77289c0.46443,0 0.84092,0.37649 0.84092,0.84092c0,0.46443 -0.37649,0.84092 -0.84092,0.84092z" fill="#333333"/><path d="M255.0976,174.31908h-11.77289c-0.46443,0 -0.84092,-0.37649 -0.84092,-0.84092c0,-0.46443 0.37649,-0.84092 0.84092,-0.84092h11.77289c0.46443,0 0.84092,0.37649 0.84092,0.84092c0,0.46443 -0.37649,0.84092 -0.84092,0.84092z" fill="#333333"/><path d="M258.1458,167.72096c0.16807,0.16886 0.26194,0.39774 0.26082,0.63599v23.32715c0,0.49462 -0.40097,0.89558 -0.89558,0.89558h-17.49115v-0.76523l16.37273,-0.39944c0.47357,0.0071 0.86502,-0.3675 0.87877,-0.84092v-22.27599c-0.01374,-0.47342 -0.4052,-0.84802 -0.87877,-0.84092h1.11842c0.23826,0 0.46669,0.09493 0.63476,0.26379z" fill="#e0a66d"/><path d="M240.01989,191.81443v0.76944c-22.89827,0 -23.75181,0.24387 0,-0.76944z" fill="#e8bc91"/></g></g></g></svg>