<svg version="1.1" xmlns="http://www.w3.org/2000/svg" xmlns:xlink="http://www.w3.org/1999/xlink" width="80.24177" height="80.24177" viewBox="0,0,80.24177,80.24177"><defs><linearGradient x1="240.00001" y1="139.8791" x2="240.00001" y2="220.12089" gradientUnits="userSpaceOnUse" id="color-1"><stop offset="0" stop-color="#38bdf8"/><stop offset="1" stop-color="#e0f2fe"/></linearGradient></defs><g transform="translate(-199.87912,-139.87911)"><g stroke="none" stroke-miterlimit="10"><path d="M215.92344,220.12089c-8.86103,0 -16.04432,-7.18329 -16.04432,-16.04432v-48.15313c0,-8.86103 7.18329,-16.04432 16.04432,-16.04432h48.15313c8.86103,0 16.04432,7.18329 16.04432,16.04432v48.15313c0,8.86103 -7.18329,16.04432 -16.04432,16.04432z" fill="url(#color-1)" stroke-width="0"/><g stroke-width="1"><path d="M255.5825,180c0,8.60622 -6.97628,15.5825 -15.5825,15.5825c-8.60622,0 -15.5825,-6.97629 -15.5825,-15.5825c0,-8.60621 6.97628,-15.5825 15.5825,-15.5825c8.60622,0 15.5825,6.97629 15.5825,15.5825" fill="#2196f3"/><path d="M252.466,180c0,6.88513 -5.58087,12.466 -12.466,12.466c-6.88513,0 -12.466,-5.58088 -12.466,-12.466c0,-6.88512 5.58087,-12.466 12.466,-12.466c6.88513,0 12.466,5.58088 12.466,12.466" fill="#eeeeee"/><path d="M241.55825,180l-1.55825,10.90776l-1.55825,-10.90776l1.55825,-10.90775z" fill="#90a4ae"/><path d="M241.10169,178.89831l6.61088,8.81425l-8.81425,-6.61088l-6.61088,-8.81425z" fill="#90a4ae"/><path d="M240.00078,178.44175l10.90697,1.55825l-10.90776,1.55825l-10.90775,-1.55825z" fill="#90a4ae"/><path d="M238.34747,178.34747l3.30504,3.30504l-9.36508,6.06003z" fill="#3f51b5"/><path d="M247.71256,172.28744l-6.06003,9.36509l-3.30506,-3.30504z" fill="#ff3d00"/><path d="M241.16868,180c0.01111,0.42459 -0.209,0.82177 -0.57492,1.03741c-0.36591,0.21564 -0.82,0.2158 -1.18606,0.00039c-0.36606,-0.21539 -0.58643,-0.61243 -0.57561,-1.03703c0.01615,-0.6335 0.53423,-1.13869 1.16792,-1.13891c0.63369,-0.00021 1.15211,0.50464 1.16868,1.13813" fill="#ffffff"/></g></g></g></svg>